<svg width="706" height="73" viewBox="0 0 706 73" fill="none" xmlns="http://www.w3.org/2000/svg">
<path d="M71.0398 70H91.8718L57.1198 2.8H35.7118L0.95975 70H21.5038L27.8398 57.136H64.7038L71.0398 70ZM34.5598 43.216L46.2718 19.408L57.8878 43.216H34.5598ZM145.966 2.8H99.3095V70H118.894V49.84H145.966C150.478 49.84 154.606 49.36 158.446 48.4C162.19 47.44 165.454 45.904 168.142 43.888C170.83 41.968 172.846 39.472 174.286 36.496C175.726 33.52 176.494 30.16 176.494 26.32C176.494 22.576 175.726 19.216 174.286 16.24C172.846 13.36 170.83 10.864 168.142 8.848C165.454 6.928 162.19 5.392 158.446 4.336C154.606 3.376 150.478 2.8 145.966 2.8ZM144.333 35.632H118.894V17.68H144.333C152.494 17.68 156.622 20.752 156.622 26.704C156.622 32.656 152.494 35.632 144.333 35.632ZM233.434 2.8H186.778V70H206.362V49.84H233.434C237.946 49.84 242.074 49.36 245.914 48.4C249.658 47.44 252.922 45.904 255.61 43.888C258.298 41.968 260.314 39.472 261.754 36.496C263.194 33.52 263.962 30.16 263.962 26.32C263.962 22.576 263.194 19.216 261.754 16.24C260.314 13.36 258.298 10.864 255.61 8.848C252.922 6.928 249.658 5.392 245.914 4.336C242.074 3.376 237.946 2.8 233.434 2.8ZM231.802 35.632H206.362V17.68H231.802C239.962 17.68 244.09 20.752 244.09 26.704C244.09 32.656 239.962 35.632 231.802 35.632ZM328.759 70H349.591L314.839 2.8H293.431L258.678 70H279.223L285.559 57.136H322.423L328.759 70ZM292.279 43.216L303.991 19.408L315.607 43.216H292.279ZM425.956 2.8H350.692V18.448H378.436V70H398.02V18.448H425.956V2.8ZM495.214 2.8V27.856H454.894V2.8H435.31V70H454.894V43.984H495.214V70H514.798V2.8H495.214ZM570.496 72.208C577.024 72.208 582.976 71.44 588.448 69.808C593.824 68.272 598.528 65.872 602.368 62.8C606.208 59.728 609.088 55.984 611.2 51.472C613.312 46.96 614.368 41.968 614.368 36.4C614.368 30.928 613.312 25.936 611.2 21.424C609.088 16.912 606.208 13.072 602.368 10C598.528 6.928 593.824 4.62399 588.448 2.992C582.976 1.456 577.024 0.591995 570.496 0.591995C563.968 0.591995 557.92 1.456 552.544 2.992C547.072 4.62399 542.464 6.928 538.624 10C534.784 13.072 531.808 16.912 529.792 21.424C527.68 25.936 526.72 30.928 526.72 36.4C526.72 41.968 527.68 46.96 529.792 51.472C531.808 55.984 534.784 59.728 538.624 62.8C542.464 65.872 547.072 68.272 552.544 69.808C557.92 71.44 563.968 72.208 570.496 72.208ZM570.496 56.272C563.008 56.272 557.152 54.544 552.928 51.088C548.704 47.632 546.592 42.736 546.592 36.4C546.592 30.16 548.704 25.264 553.024 21.808C557.248 18.352 563.104 16.528 570.496 16.528C577.888 16.528 583.744 18.352 587.968 21.808C592.192 25.264 594.4 30.16 594.4 36.4C594.4 42.736 592.192 47.632 587.968 51.088C583.744 54.544 577.888 56.272 570.496 56.272ZM686.854 2.8V43.888L647.014 2.8H626.278V70H645.19V25.84L688.582 70H705.766V2.8H686.854Z" fill="white" fill-opacity="0.26"/>
</svg>
