<svg width="721" height="26" viewBox="0 0 721 26" fill="none" xmlns="http://www.w3.org/2000/svg">
<path d="M5.96806 0.52H6.96806V-0.48H5.96806V0.52ZM0.064064 0.52V-0.48H-0.935936V0.52H0.064064ZM0.064064 25H-0.935936V26H0.064064V25ZM18.8201 25V26H19.8201V25H18.8201ZM18.8201 19.528H19.8201V18.528H18.8201V19.528ZM5.96806 19.528H4.96806V20.528H5.96806V19.528ZM5.96806 -0.48H0.064064V1.52H5.96806V-0.48ZM-0.935936 0.52V25H1.06406V0.52H-0.935936ZM0.064064 26H18.8201V24H0.064064V26ZM19.8201 25V19.528H17.8201V25H19.8201ZM18.8201 18.528H5.96806V20.528H18.8201V18.528ZM6.96806 19.528V0.52H4.96806V19.528H6.96806ZM39.4011 0.52V-0.48H38.4011V0.52H39.4011ZM39.4011 25H38.4011V26H39.4011V25ZM58.1571 25V26H59.1571V25H58.1571ZM58.1571 19.528H59.1571V18.528H58.1571V19.528ZM45.3051 19.528H44.3051V20.528H45.3051V19.528ZM45.3051 15.316V14.316H44.3051V15.316H45.3051ZM56.0331 15.316V16.316H57.0331V15.316H56.0331ZM56.0331 10.204H57.0331V9.204H56.0331V10.204ZM45.3051 10.204H44.3051V11.204H45.3051V10.204ZM45.3051 5.992V4.992H44.3051V5.992H45.3051ZM58.1571 5.992V6.992H59.1571V5.992H58.1571ZM58.1571 0.52H59.1571V-0.48H58.1571V0.52ZM38.4011 0.52V25H40.4011V0.52H38.4011ZM39.4011 26H58.1571V24H39.4011V26ZM59.1571 25V19.528H57.1571V25H59.1571ZM58.1571 18.528H45.3051V20.528H58.1571V18.528ZM46.3051 19.528V15.316H44.3051V19.528H46.3051ZM45.3051 16.316H56.0331V14.316H45.3051V16.316ZM57.0331 15.316V10.204H55.0331V15.316H57.0331ZM56.0331 9.204H45.3051V11.204H56.0331V9.204ZM46.3051 10.204V5.992H44.3051V10.204H46.3051ZM45.3051 6.992H58.1571V4.992H45.3051V6.992ZM59.1571 5.992V0.52H57.1571V5.992H59.1571ZM58.1571 -0.48H39.4011V1.52H58.1571V-0.48ZM101.224 0.52H102.224V-0.48H101.224V0.52ZM77.8958 0.52V-0.48H76.8958V0.52H77.8958ZM77.8958 5.992H76.8958V6.992H77.8958V5.992ZM86.5718 5.992H87.5718V4.992H86.5718V5.992ZM86.5718 25H85.5718V26H86.5718V25ZM92.5478 25V26H93.5478V25H92.5478ZM92.5478 5.992V4.992H91.5478V5.992H92.5478ZM101.224 5.992V6.992H102.224V5.992H101.224ZM101.224 -0.48H77.8958V1.52H101.224V-0.48ZM76.8958 0.52V5.992H78.8958V0.52H76.8958ZM77.8958 6.992H86.5718V4.992H77.8958V6.992ZM85.5718 5.992V25H87.5718V5.992H85.5718ZM86.5718 26H92.5478V24H86.5718V26ZM93.5478 25V5.992H91.5478V25H93.5478ZM92.5478 6.992H101.224V4.992H92.5478V6.992ZM102.224 5.992V0.52H100.224V5.992H102.224ZM172.253 0.52L173.076 1.0881L174.158 -0.48H172.253V0.52ZM165.377 0.52V-0.48H164.836L164.54 -0.0277357L165.377 0.52ZM158.825 10.528L157.992 11.082L158.832 12.3433L159.662 11.0757L158.825 10.528ZM152.165 0.52L152.997 -0.034009L152.701 -0.48H152.165V0.52ZM145.361 0.52V-0.48H143.463L144.536 1.08545L145.361 0.52ZM155.801 15.748H156.801V15.4381L156.626 15.1825L155.801 15.748ZM155.801 25H154.801V26H155.801V25ZM161.741 25V26H162.741V25H161.741ZM161.741 15.748L160.918 15.1799L160.741 15.4364V15.748H161.741ZM172.253 -0.48H165.377V1.52H172.253V-0.48ZM164.54 -0.0277357L157.988 9.98026L159.662 11.0757L166.214 1.06774L164.54 -0.0277357ZM159.657 9.97399L152.997 -0.034009L151.332 1.07401L157.992 11.082L159.657 9.97399ZM152.165 -0.48H145.361V1.52H152.165V-0.48ZM144.536 1.08545L154.976 16.3135L156.626 15.1825L146.186 -0.0454531L144.536 1.08545ZM154.801 15.748V25H156.801V15.748H154.801ZM155.801 26H161.741V24H155.801V26ZM162.741 25V15.748H160.741V25H162.741ZM162.564 16.3161L173.076 1.0881L171.43 -0.0480967L160.918 15.1799L162.564 16.3161ZM199.258 -0.912001C191.679 -0.912001 185.622 5.26714 185.622 12.76H187.622C187.622 6.35686 192.798 1.088 199.258 1.088V-0.912001ZM185.622 12.76C185.622 20.2907 191.68 26.432 199.258 26.432V24.432C192.796 24.432 187.622 19.1973 187.622 12.76H185.622ZM199.258 26.432C206.76 26.432 212.894 20.2944 212.894 12.76H210.894C210.894 19.1936 205.652 24.432 199.258 24.432V26.432ZM212.894 12.76C212.894 5.26341 206.762 -0.912001 199.258 -0.912001V1.088C205.65 1.088 210.894 6.36058 210.894 12.76H212.894ZM199.258 6.596C202.633 6.596 205.422 9.35555 205.422 12.76H207.422C207.422 8.24445 203.731 4.596 199.258 4.596V6.596ZM205.422 12.76C205.422 16.2037 202.63 18.96 199.258 18.96V20.96C203.735 20.96 207.422 17.3083 207.422 12.76H205.422ZM199.258 18.96C195.808 18.96 193.022 16.1972 193.022 12.76H191.022C191.022 17.3148 194.716 20.96 199.258 20.96V18.96ZM193.022 12.76C193.022 9.36203 195.805 6.596 199.258 6.596V4.596C194.72 4.596 191.022 8.23797 191.022 12.76H193.022ZM254.541 0.52H255.541V-0.48H254.541V0.52ZM248.565 0.52V-0.48H247.565V0.52H248.565ZM236.829 0.52H237.829V-0.48H236.829V0.52ZM230.925 0.52V-0.48H229.925V0.52H230.925ZM254.541 -0.48H248.565V1.52H254.541V-0.48ZM247.565 0.52V12.436H249.565V0.52H247.565ZM247.565 12.436C247.565 14.6437 247.025 16.2791 246.173 17.3411C245.343 18.3772 244.146 18.96 242.589 18.96V20.96C244.704 20.96 246.494 20.1388 247.734 18.5919C248.953 17.0709 249.565 14.9443 249.565 12.436H247.565ZM242.589 18.96C240.996 18.96 239.867 18.3792 239.104 17.3652C238.309 16.3097 237.829 14.6715 237.829 12.436H235.829C235.829 14.9165 236.356 17.0403 237.506 18.5678C238.687 20.1368 240.437 20.96 242.589 20.96V18.96ZM237.829 12.436V0.52H235.829V12.436H237.829ZM236.829 -0.48H230.925V1.52H236.829V-0.48ZM229.925 0.52V12.436H231.925V0.52H229.925ZM229.925 12.436C229.925 16.6777 231.162 20.187 233.414 22.6468C235.673 25.1147 238.869 26.432 242.589 26.432V24.432C239.36 24.432 236.724 23.3013 234.889 21.2962C233.046 19.283 231.925 16.2943 231.925 12.436H229.925ZM242.589 26.432C246.255 26.432 249.513 25.1151 251.853 22.6617C254.192 20.2098 255.541 16.6994 255.541 12.436H253.541C253.541 16.2726 252.334 19.2602 250.406 21.2813C248.48 23.3009 245.763 24.432 242.589 24.432V26.432ZM255.541 12.436V0.52H253.541V12.436H255.541ZM275.177 0.52V-0.48H274.177V0.52H275.177ZM275.177 25H274.177V26H275.177V25ZM281.081 25V26H282.081V25H281.081ZM281.081 18.916V17.916H280.081V18.916H281.081ZM285.401 18.916L286.257 18.3993L285.966 17.916H285.401V18.916ZM289.073 25L288.217 25.5167L288.509 26H289.073V25ZM296.417 25V26H298.311L297.243 24.436L296.417 25ZM291.377 17.62L290.906 16.738L289.923 17.2633L290.551 18.184L291.377 17.62ZM281.081 13.444H280.081V14.444H281.081V13.444ZM281.081 5.992V4.992H280.081V5.992H281.081ZM287.021 -0.48H275.177V1.52H287.021V-0.48ZM274.177 0.52V25H276.177V0.52H274.177ZM275.177 26H281.081V24H275.177V26ZM282.081 25V18.916H280.081V25H282.081ZM281.081 19.916H285.401V17.916H281.081V19.916ZM284.545 19.4327L288.217 25.5167L289.929 24.4833L286.257 18.3993L284.545 19.4327ZM289.073 26H296.417V24H289.073V26ZM297.243 24.436L292.203 17.056L290.551 18.184L295.591 25.564L297.243 24.436ZM291.848 18.502C294.844 16.9018 296.733 13.5472 296.733 9.7H294.733C294.733 12.9088 293.167 15.5302 290.906 16.738L291.848 18.502ZM296.733 9.7C296.733 3.8628 292.584 -0.48 287.021 -0.48V1.52C291.395 1.52 294.733 4.8812 294.733 9.7H296.733ZM286.193 6.992C287.589 6.992 288.793 8.20406 288.793 9.7H290.793C290.793 7.16394 288.757 4.992 286.193 4.992V6.992ZM288.793 9.7C288.793 11.2317 287.589 12.444 286.157 12.444V14.444C288.757 14.444 290.793 12.2723 290.793 9.7H288.793ZM286.157 12.444H281.081V14.444H286.157V12.444ZM282.081 13.444V5.992H280.081V13.444H282.081ZM281.081 6.992H286.193V4.992H281.081V6.992ZM347.837 0.52H348.837V-0.48H347.837V0.52ZM341.933 0.52V-0.48H340.933V0.52H341.933ZM341.933 25H340.933V26H341.933V25ZM347.837 25V26H348.837V25H347.837ZM347.837 -0.48H341.933V1.52H347.837V-0.48ZM340.933 0.52V25H342.933V0.52H340.933ZM341.933 26H347.837V24H341.933V26ZM348.837 25V0.52H346.837V25H348.837ZM380.54 0.52L380.543 1.51999L380.544 1.51999L380.54 0.52ZM369.704 0.556L369.701 -0.443995L368.704 -0.440684V0.556H369.704ZM369.704 25H368.704V26H369.704V25ZM375.608 5.992V4.992H374.608V5.992H375.608ZM375.608 19.528H374.608V20.528H375.608V19.528ZM380.537 -0.479995L369.701 -0.443995L369.707 1.55599L380.543 1.51999L380.537 -0.479995ZM368.704 0.556V25H370.704V0.556H368.704ZM369.704 26H380.54V24H369.704V26ZM380.54 26C384.584 26 388.072 24.6328 390.555 22.2576C393.041 19.8802 394.464 16.5448 394.464 12.724H392.464C392.464 16.0312 391.241 18.8338 389.173 20.8124C387.102 22.7932 384.127 24 380.54 24V26ZM394.464 12.724C394.464 8.96159 393.164 5.63207 390.725 3.24748C388.285 0.862229 384.787 -0.498973 380.535 -0.47999L380.544 1.51999C384.356 1.50297 387.32 2.71577 389.327 4.67752C391.334 6.63993 392.464 9.43041 392.464 12.724H394.464ZM375.608 6.992H380.54V4.992H375.608V6.992ZM380.54 6.992C382.447 6.992 383.915 7.52473 384.898 8.44205C385.87 9.3496 386.488 10.7453 386.488 12.724H388.488C388.488 10.3107 387.72 8.3404 386.262 6.97994C384.815 5.62927 382.809 4.992 380.54 4.992V6.992ZM386.488 12.724C386.488 14.5368 385.865 15.9684 384.856 16.9474C383.845 17.9295 382.37 18.528 380.54 18.528V20.528C382.814 20.528 384.813 19.7765 386.249 18.3826C387.689 16.9856 388.488 15.0152 388.488 12.724H386.488ZM380.54 18.528H375.608V20.528H380.54V18.528ZM376.608 19.528V5.992H374.608V19.528H376.608ZM413.646 0.52V-0.48H412.646V0.52H413.646ZM413.646 25H412.646V26H413.646V25ZM432.402 25V26H433.402V25H432.402ZM432.402 19.528H433.402V18.528H432.402V19.528ZM419.55 19.528H418.55V20.528H419.55V19.528ZM419.55 15.316V14.316H418.55V15.316H419.55ZM430.278 15.316V16.316H431.278V15.316H430.278ZM430.278 10.204H431.278V9.204H430.278V10.204ZM419.55 10.204H418.55V11.204H419.55V10.204ZM419.55 5.992V4.992H418.55V5.992H419.55ZM432.402 5.992V6.992H433.402V5.992H432.402ZM432.402 0.52H433.402V-0.48H432.402V0.52ZM412.646 0.52V25H414.646V0.52H412.646ZM413.646 26H432.402V24H413.646V26ZM433.402 25V19.528H431.402V25H433.402ZM432.402 18.528H419.55V20.528H432.402V18.528ZM420.55 19.528V15.316H418.55V19.528H420.55ZM419.55 16.316H430.278V14.316H419.55V16.316ZM431.278 15.316V10.204H429.278V15.316H431.278ZM430.278 9.204H419.55V11.204H430.278V9.204ZM420.55 10.204V5.992H418.55V10.204H420.55ZM419.55 6.992H432.402V4.992H419.55V6.992ZM433.402 5.992V0.52H431.402V5.992H433.402ZM432.402 -0.48H413.646V1.52H432.402V-0.48ZM473.417 25L472.493 25.3834L472.749 26H473.417V25ZM479.717 25V26H481.235L480.636 24.6054L479.717 25ZM469.205 0.52L470.124 0.125428L469.864 -0.48H469.205V0.52ZM462.617 0.52V-0.48H461.957L461.698 0.12657L462.617 0.52ZM452.141 25L451.222 24.6066L450.625 26H452.141V25ZM458.405 25V26H459.067L459.326 25.3908L458.405 25ZM460.025 21.184V20.184H459.363L459.105 20.7932L460.025 21.184ZM471.833 21.184L472.757 20.8006L472.501 20.184H471.833V21.184ZM462.077 16.36L461.157 15.9687L460.565 17.36H462.077V16.36ZM465.965 7.216L466.888 6.83087L465.974 4.64012L465.045 6.82471L465.965 7.216ZM469.781 16.36V17.36H471.282L470.704 15.9749L469.781 16.36ZM473.417 26H479.717V24H473.417V26ZM480.636 24.6054L470.124 0.125428L468.286 0.914571L478.798 25.3946L480.636 24.6054ZM469.205 -0.48H462.617V1.52H469.205V-0.48ZM461.698 0.12657L451.222 24.6066L453.06 25.3934L463.536 0.913429L461.698 0.12657ZM452.141 26H458.405V24H452.141V26ZM459.326 25.3908L460.946 21.5748L459.105 20.7932L457.485 24.6092L459.326 25.3908ZM460.025 22.184H471.833V20.184H460.025V22.184ZM470.91 21.5674L472.493 25.3834L474.341 24.6166L472.757 20.8006L470.91 21.5674ZM462.997 16.7513L466.885 7.60729L465.045 6.82471L461.157 15.9687L462.997 16.7513ZM465.042 7.60113L468.858 16.7451L470.704 15.9749L466.888 6.83087L465.042 7.60113ZM469.781 15.36H462.077V17.36H469.781V15.36ZM506.919 15.532L507.15 14.5592L507.148 14.5586L506.919 15.532ZM502.311 16.432L503.304 16.3125L503.198 15.432H502.311V16.432ZM496.443 16.432V15.432H495.443V16.432H496.443ZM507.855 10.132L508.108 9.16457L508.107 9.16427L507.855 10.132ZM510.663 8.26H509.663V9.26H510.663V8.26ZM516.531 8.26V9.26H517.531V8.26H516.531ZM506.775 -0.912001C500.899 -0.912001 495.803 2.62243 495.803 7.864H497.803C497.803 4.17757 501.491 1.088 506.775 1.088V-0.912001ZM495.803 7.864C495.803 11.0831 497.753 13.0616 500.005 14.2903C502.217 15.4976 504.892 16.0824 506.69 16.5054L507.148 14.5586C505.274 14.1176 502.89 13.5864 500.963 12.5347C499.075 11.5044 497.803 10.0809 497.803 7.864H495.803ZM506.687 16.5048C507.848 16.7812 508.809 17.0279 509.484 17.3634C510.149 17.6938 510.239 17.9525 510.239 18.16H512.239C512.239 16.8195 511.303 16.0342 510.374 15.5726C509.456 15.1161 508.258 14.8228 507.15 14.5592L506.687 16.5048ZM510.239 18.16C510.239 18.3455 510.163 18.5886 509.842 18.8186C509.497 19.066 508.826 19.32 507.639 19.32V21.32C509.08 21.32 510.209 21.016 511.007 20.4444C511.829 19.8554 512.239 19.0185 512.239 18.16H510.239ZM507.639 19.32C505.524 19.32 504.489 18.4965 503.954 17.7784C503.671 17.3984 503.504 17.0152 503.41 16.7272C503.363 16.5844 503.335 16.4686 503.319 16.3939C503.311 16.3566 503.307 16.33 503.304 16.3157C503.303 16.3086 503.303 16.3046 503.303 16.304C503.302 16.3037 503.303 16.3042 503.303 16.3056C503.303 16.3063 503.303 16.3072 503.303 16.3084C503.303 16.309 503.303 16.3096 503.303 16.3103C503.303 16.3106 503.303 16.3112 503.303 16.3113C503.304 16.3119 503.304 16.3125 502.311 16.432C501.318 16.5515 501.318 16.5521 501.318 16.5527C501.318 16.553 501.318 16.5536 501.318 16.5541C501.318 16.555 501.318 16.556 501.319 16.557C501.319 16.5591 501.319 16.5614 501.319 16.564C501.32 16.5692 501.321 16.5753 501.322 16.5823C501.324 16.5964 501.327 16.6143 501.33 16.6356C501.337 16.6783 501.347 16.7352 501.362 16.8043C501.391 16.9421 501.437 17.1301 501.51 17.3518C501.655 17.7928 501.909 18.3816 502.35 18.9736C503.264 20.1995 504.894 21.32 507.639 21.32V19.32ZM502.311 15.432H496.443V17.432H502.311V15.432ZM495.443 16.432C495.443 20.7931 499.087 26.432 507.315 26.432V24.432C500.206 24.432 497.443 19.7029 497.443 16.432H495.443ZM507.315 26.432C510.335 26.432 513.021 25.6639 514.978 24.1873C516.959 22.6921 518.143 20.5025 518.143 17.836H516.143C516.143 19.8495 515.274 21.4579 513.773 22.5907C512.247 23.7421 510.019 24.432 507.315 24.432V26.432ZM518.143 17.836C518.143 14.7077 516.527 12.7444 514.465 11.4838C512.472 10.2659 509.99 9.65709 508.108 9.16457L507.602 11.0994C509.571 11.6149 511.733 12.1581 513.422 13.1902C515.04 14.1796 516.143 15.5643 516.143 17.836H518.143ZM508.107 9.16427C506.347 8.70593 505.174 8.38563 504.432 8.05063C504.067 7.88584 503.897 7.75554 503.824 7.67494C503.778 7.62546 503.779 7.6114 503.779 7.576H501.779C501.779 8.1346 501.982 8.62454 502.348 9.02505C502.686 9.39446 503.137 9.66016 503.609 9.87337C504.541 10.2944 505.907 10.6581 507.603 11.0997L508.107 9.16427ZM503.779 7.576C503.779 7.45644 503.874 7.16663 504.52 6.84909C505.122 6.55337 505.948 6.38 506.703 6.38V4.38C505.693 4.38 504.557 4.60263 503.638 5.05391C502.764 5.48337 501.779 6.29156 501.779 7.576H503.779ZM506.703 6.38C508.841 6.38 509.663 7.74455 509.663 8.26H511.663C511.663 6.32745 509.605 4.38 506.703 4.38V6.38ZM510.663 9.26H516.531V7.26H510.663V9.26ZM517.531 8.26C517.531 3.8473 513.654 -0.912001 506.775 -0.912001V1.088C512.64 1.088 515.531 5.04069 515.531 8.26H517.531ZM581.524 0.52H582.524V-0.48H581.524V0.52ZM562.768 0.52V-0.48H561.768V0.52H562.768ZM562.768 25H561.768V26H562.768V25ZM568.672 25V26H569.672V25H568.672ZM568.672 17.044V16.044H567.672V17.044H568.672ZM579.4 17.044V18.044H580.4V17.044H579.4ZM579.4 11.608H580.4V10.608H579.4V11.608ZM568.672 11.608H567.672V12.608H568.672V11.608ZM568.672 5.992V4.992H567.672V5.992H568.672ZM581.524 5.992V6.992H582.524V5.992H581.524ZM581.524 -0.48H562.768V1.52H581.524V-0.48ZM561.768 0.52V25H563.768V0.52H561.768ZM562.768 26H568.672V24H562.768V26ZM569.672 25V17.044H567.672V25H569.672ZM568.672 18.044H579.4V16.044H568.672V18.044ZM580.4 17.044V11.608H578.4V17.044H580.4ZM579.4 10.608H568.672V12.608H579.4V10.608ZM569.672 11.608V5.992H567.672V11.608H569.672ZM568.672 6.992H581.524V4.992H568.672V6.992ZM582.524 5.992V0.52H580.524V5.992H582.524ZM608.431 0.52H609.431V-0.48H608.431V0.52ZM602.527 0.52V-0.48H601.527V0.52H602.527ZM602.527 25H601.527V26H602.527V25ZM621.283 25V26H622.283V25H621.283ZM621.283 19.528H622.283V18.528H621.283V19.528ZM608.431 19.528H607.431V20.528H608.431V19.528ZM608.431 -0.48H602.527V1.52H608.431V-0.48ZM601.527 0.52V25H603.527V0.52H601.527ZM602.527 26H621.283V24H602.527V26ZM622.283 25V19.528H620.283V25H622.283ZM621.283 18.528H608.431V20.528H621.283V18.528ZM609.431 19.528V0.52H607.431V19.528H609.431ZM651.65 -0.912001C644.071 -0.912001 638.014 5.26714 638.014 12.76H640.014C640.014 6.35686 645.19 1.088 651.65 1.088V-0.912001ZM638.014 12.76C638.014 20.2907 644.072 26.432 651.65 26.432V24.432C645.188 24.432 640.014 19.1973 640.014 12.76H638.014ZM651.65 26.432C659.152 26.432 665.286 20.2944 665.286 12.76H663.286C663.286 19.1936 658.044 24.432 651.65 24.432V26.432ZM665.286 12.76C665.286 5.26341 659.154 -0.912001 651.65 -0.912001V1.088C658.042 1.088 663.286 6.36058 663.286 12.76H665.286ZM651.65 6.596C655.025 6.596 657.814 9.35555 657.814 12.76H659.814C659.814 8.24445 656.123 4.596 651.65 4.596V6.596ZM657.814 12.76C657.814 16.2037 655.022 18.96 651.65 18.96V20.96C656.127 20.96 659.814 17.3083 659.814 12.76H657.814ZM651.65 18.96C648.2 18.96 645.414 16.1972 645.414 12.76H643.414C643.414 17.3148 647.108 20.96 651.65 20.96V18.96ZM645.414 12.76C645.414 9.36203 648.197 6.596 651.65 6.596V4.596C647.112 4.596 643.414 8.23797 643.414 12.76H645.414ZM713.994 0.52V-0.48H713.292L713.053 0.181356L713.994 0.52ZM708.306 16.324L707.352 16.6239L708.242 19.4549L709.247 16.6626L708.306 16.324ZM703.338 0.52L704.292 0.220117L704.072 -0.48H703.338V0.52ZM696.894 0.52V-0.48H696.186L695.951 0.188411L696.894 0.52ZM691.314 16.396L690.362 16.7005L691.27 19.5394L692.258 16.7276L691.314 16.396ZM686.238 0.52L687.191 0.215459L686.969 -0.48H686.238V0.52ZM679.938 0.52V-0.48H678.552L678.989 0.83539L679.938 0.52ZM688.074 25L687.125 25.3154L687.353 26H688.074V25ZM694.194 25V26H694.896L695.135 25.3397L694.194 25ZM699.954 9.052L700.906 8.74481L700.007 5.96119L699.014 8.7123L699.954 9.052ZM705.102 25L704.151 25.3072L704.374 26H705.102V25ZM711.15 25V26H711.843L712.087 25.3511L711.15 25ZM720.33 0.52L721.267 0.871123L721.773 -0.48H720.33V0.52ZM713.053 0.181356L707.365 15.9854L709.247 16.6626L714.935 0.858644L713.053 0.181356ZM709.26 16.0241L704.292 0.220117L702.384 0.819883L707.352 16.6239L709.26 16.0241ZM703.338 -0.48H696.894V1.52H703.338V-0.48ZM695.951 0.188411L690.371 16.0644L692.258 16.7276L697.838 0.851588L695.951 0.188411ZM692.267 16.0915L687.191 0.215459L685.286 0.82454L690.362 16.7005L692.267 16.0915ZM686.238 -0.48H679.938V1.52H686.238V-0.48ZM678.989 0.83539L687.125 25.3154L689.023 24.6846L680.887 0.20461L678.989 0.83539ZM688.074 26H694.194V24H688.074V26ZM695.135 25.3397L700.895 9.3917L699.014 8.7123L693.254 24.6603L695.135 25.3397ZM699.003 9.35919L704.151 25.3072L706.054 24.6928L700.906 8.74481L699.003 9.35919ZM705.102 26H711.15V24H705.102V26ZM712.087 25.3511L721.267 0.871123L719.394 0.168877L710.214 24.6489L712.087 25.3511ZM720.33 -0.48H713.994V1.52H720.33V-0.48Z" fill="white" fill-opacity="0.65"/>
</svg>
